<svg width="28" height="26" viewBox="0 0 28 26" fill="none" xmlns="http://www.w3.org/2000/svg">
<path d="M19.7238 2.16669H8.12154C4.91768 2.16669 2.32043 4.59181 2.32043 7.58335V18.4167C2.32043 21.4082 4.91768 23.8334 8.12154 23.8334H19.7238C22.9276 23.8334 25.5249 21.4082 25.5249 18.4167V7.58335C25.5249 4.59181 22.9276 2.16669 19.7238 2.16669Z" stroke="black" stroke-width="2" stroke-linecap="round" stroke-linejoin="round"/>
<path d="M18.5635 12.3175C18.7067 13.2191 18.5418 14.1399 18.0922 14.949C17.6426 15.758 16.9313 16.4141 16.0594 16.8238C15.1874 17.2336 14.1993 17.3763 13.2356 17.2314C12.2718 17.0866 11.3815 16.6618 10.6913 16.0173C10.001 15.3728 9.546 14.5415 9.39092 13.6416C9.23584 12.7417 9.38859 11.8191 9.82746 11.0049C10.2663 10.1908 10.969 9.52657 11.8354 9.10678C12.7019 8.68699 13.688 8.53299 14.6536 8.66669C15.6385 8.80306 16.5504 9.23161 17.2545 9.88902C17.9585 10.5464 18.4175 11.3979 18.5635 12.3175Z" stroke="black" stroke-width="2" stroke-linecap="round" stroke-linejoin="round"/>
<path d="M20.3039 7.04169H20.315" stroke="black" stroke-width="2" stroke-linecap="round" stroke-linejoin="round"/>
</svg>
