<svg width="155" height="19" viewBox="0 0 155 19" fill="none" xmlns="http://www.w3.org/2000/svg">
<path d="M18.112 17.16C18.176 17.256 18.208 17.36 18.208 17.472C18.208 17.616 18.152 17.744 18.04 17.856C17.944 17.952 17.824 18 17.68 18H11.488C11.12 18 10.832 17.872 10.624 17.616L6.448 12.456V17.352C6.448 17.528 6.384 17.68 6.256 17.808C6.128 17.936 5.976 18 5.8 18H0.856C0.68 18 0.528 17.936 0.4 17.808C0.272 17.68 0.208 17.528 0.208 17.352V1.848C0.208 1.672 0.272 1.52 0.4 1.392C0.528 1.264 0.68 1.2 0.856 1.2H5.8C5.976 1.2 6.128 1.264 6.256 1.392C6.384 1.52 6.448 1.672 6.448 1.848V6.36L10.24 1.608C10.48 1.336 10.776 1.2 11.128 1.2H16.912C17.056 1.2 17.176 1.256 17.272 1.368C17.384 1.464 17.44 1.584 17.44 1.728C17.44 1.856 17.4 1.968 17.32 2.064L11.632 9L18.112 17.16ZM25.1346 17.184C24.9266 17.728 24.5666 18 24.0546 18H19.5186C19.3746 18 19.2466 17.952 19.1346 17.856C19.0386 17.744 18.9906 17.616 18.9906 17.472L19.0146 17.328L24.2466 1.992C24.3106 1.784 24.4306 1.6 24.6066 1.44C24.7826 1.28 25.0226 1.2 25.3266 1.2H31.9986C32.3026 1.2 32.5426 1.28 32.7186 1.44C32.8946 1.6 33.0146 1.784 33.0786 1.992L38.3106 17.328L38.3346 17.472C38.3346 17.616 38.2786 17.744 38.1666 17.856C38.0706 17.952 37.9506 18 37.8066 18H33.2706C32.7586 18 32.3986 17.728 32.1906 17.184L31.5906 15.504H25.7346L25.1346 17.184ZM28.6626 5.832L26.9586 10.824H30.3666L28.6626 5.832ZM48.9813 18.24C46.2933 18.24 44.1573 17.656 42.5733 16.488C41.0053 15.32 40.2213 13.496 40.2213 11.016V1.848C40.2213 1.672 40.2853 1.52 40.4133 1.392C40.5413 1.264 40.6933 1.2 40.8693 1.2H45.8853C46.0613 1.2 46.2133 1.264 46.3413 1.392C46.4693 1.52 46.5333 1.672 46.5333 1.848V11.4C46.5333 12.056 46.7493 12.56 47.1813 12.912C47.6293 13.264 48.2293 13.44 48.9813 13.44C49.7333 13.44 50.3253 13.264 50.7573 12.912C51.2053 12.56 51.4293 12.056 51.4293 11.4V1.848C51.4293 1.672 51.4933 1.52 51.6213 1.392C51.7493 1.264 51.9013 1.2 52.0773 1.2H57.0933C57.2693 1.2 57.4213 1.264 57.5493 1.392C57.6773 1.52 57.7413 1.672 57.7413 1.848V11.016C57.7413 13.496 56.9493 15.32 55.3653 16.488C53.7973 17.656 51.6693 18.24 48.9813 18.24ZM70.6919 7.296C72.4519 7.488 73.8599 7.8 74.9159 8.232C75.9879 8.664 76.7639 9.232 77.2439 9.936C77.7239 10.64 77.9639 11.52 77.9639 12.576C77.9639 13.728 77.5879 14.736 76.8359 15.6C76.0999 16.448 75.0759 17.104 73.7639 17.568C72.4519 18.016 70.9559 18.24 69.2759 18.24C67.4039 18.24 65.8199 18.008 64.5239 17.544C63.2279 17.08 62.2599 16.464 61.6199 15.696C60.9799 14.912 60.6599 14.056 60.6599 13.128C60.6599 12.968 60.7079 12.84 60.8039 12.744C60.9159 12.648 61.0519 12.6 61.2119 12.6H66.1319C66.4679 12.6 66.7399 12.704 66.9479 12.912C67.2199 13.168 67.5239 13.344 67.8599 13.44C68.1959 13.52 68.6679 13.56 69.2759 13.56C70.7959 13.56 71.5559 13.328 71.5559 12.864C71.5559 12.672 71.4519 12.512 71.2439 12.384C71.0519 12.24 70.6999 12.12 70.1879 12.024C69.6919 11.912 68.9559 11.8 67.9799 11.688C65.7879 11.432 64.1079 10.888 62.9399 10.056C61.7719 9.208 61.1879 8.016 61.1879 6.48C61.1879 5.392 61.5159 4.432 62.1719 3.6C62.8279 2.768 63.7559 2.12 64.9559 1.656C66.1719 1.192 67.5799 0.959999 69.1799 0.959999C70.8439 0.959999 72.2999 1.224 73.5479 1.752C74.7959 2.264 75.7479 2.904 76.4039 3.672C77.0599 4.44 77.3879 5.192 77.3879 5.928C77.3879 6.088 77.3319 6.216 77.2199 6.312C77.1239 6.408 76.9879 6.456 76.8119 6.456H71.6519C71.3799 6.456 71.1319 6.36 70.9079 6.168C70.7319 6.008 70.5239 5.88 70.2839 5.784C70.0439 5.688 69.6759 5.64 69.1799 5.64C68.1079 5.64 67.5719 5.864 67.5719 6.312C67.5719 6.552 67.7799 6.744 68.1959 6.888C68.6119 7.016 69.4439 7.152 70.6919 7.296ZM97.7545 1.2C97.9305 1.2 98.0825 1.264 98.2105 1.392C98.3385 1.52 98.4025 1.672 98.4025 1.848V17.352C98.4025 17.528 98.3385 17.68 98.2105 17.808C98.0825 17.936 97.9305 18 97.7545 18H92.8105C92.6345 18 92.4825 17.936 92.3545 17.808C92.2265 17.68 92.1625 17.528 92.1625 17.352V12.24H87.3625V17.352C87.3625 17.528 87.2985 17.68 87.1705 17.808C87.0425 17.936 86.8905 18 86.7145 18H81.7705C81.5945 18 81.4425 17.944 81.3145 17.832C81.1865 17.704 81.1225 17.544 81.1225 17.352V1.848C81.1225 1.672 81.1865 1.52 81.3145 1.392C81.4425 1.264 81.5945 1.2 81.7705 1.2H86.7145C86.8905 1.2 87.0425 1.264 87.1705 1.392C87.2985 1.52 87.3625 1.672 87.3625 1.848V6.768H92.1625V1.848C92.1625 1.672 92.2265 1.52 92.3545 1.392C92.4825 1.264 92.6345 1.2 92.8105 1.2H97.7545ZM106.697 17.184C106.489 17.728 106.129 18 105.617 18H101.081C100.937 18 100.809 17.952 100.697 17.856C100.601 17.744 100.553 17.616 100.553 17.472L100.577 17.328L105.809 1.992C105.873 1.784 105.993 1.6 106.169 1.44C106.345 1.28 106.585 1.2 106.889 1.2H113.561C113.865 1.2 114.105 1.28 114.281 1.44C114.457 1.6 114.577 1.784 114.641 1.992L119.873 17.328L119.897 17.472C119.897 17.616 119.841 17.744 119.729 17.856C119.633 17.952 119.513 18 119.369 18H114.833C114.321 18 113.961 17.728 113.753 17.184L113.153 15.504H107.297L106.697 17.184ZM110.225 5.832L108.521 10.824H111.929L110.225 5.832ZM138.368 13.08C138.544 13.08 138.696 13.144 138.824 13.272C138.952 13.4 139.016 13.552 139.016 13.728V17.352C139.016 17.528 138.952 17.68 138.824 17.808C138.696 17.936 138.544 18 138.368 18H124.352C124.176 18 124.024 17.936 123.896 17.808C123.768 17.68 123.704 17.528 123.704 17.352V1.848C123.704 1.672 123.768 1.52 123.896 1.392C124.024 1.264 124.176 1.2 124.352 1.2H129.536C129.712 1.2 129.864 1.264 129.992 1.392C130.12 1.52 130.184 1.672 130.184 1.848V13.08H138.368ZM153.454 12.288C153.63 12.288 153.782 12.352 153.91 12.48C154.038 12.608 154.102 12.76 154.102 12.936V17.352C154.102 17.528 154.038 17.68 153.91 17.808C153.782 17.936 153.63 18 153.454 18H148.414C148.238 18 148.086 17.936 147.958 17.808C147.83 17.68 147.766 17.528 147.766 17.352V12.936C147.766 12.76 147.83 12.608 147.958 12.48C148.086 12.352 148.238 12.288 148.414 12.288H153.454Z" fill="black"/>
</svg>
