<svg width="28" height="25" viewBox="0 0 28 25" fill="none" xmlns="http://www.w3.org/2000/svg">
<path d="M18.7182 8.4314C20.5645 8.4314 22.3351 9.05579 23.6406 10.1672C24.9461 11.2786 25.6796 12.7861 25.6796 14.3579V21.2721H21.0387V14.3579C21.0387 13.8339 20.7942 13.3315 20.359 12.961C19.9239 12.5905 19.3336 12.3824 18.7182 12.3824C18.1028 12.3824 17.5126 12.5905 17.0774 12.961C16.6423 13.3315 16.3978 13.8339 16.3978 14.3579V21.2721H11.7569V14.3579C11.7569 12.7861 12.4903 11.2786 13.7958 10.1672C15.1013 9.05579 16.872 8.4314 18.7182 8.4314V8.4314Z" stroke="black" stroke-width="2" stroke-linecap="round" stroke-linejoin="round"/>
<path d="M7.11598 9.41913H2.4751V21.2721H7.11598V9.41913Z" stroke="black" stroke-width="2" stroke-linecap="round" stroke-linejoin="round"/>
<path d="M4.79554 6.45586C6.07708 6.45586 7.11598 5.57141 7.11598 4.48037C7.11598 3.38934 6.07708 2.50488 4.79554 2.50488C3.51399 2.50488 2.4751 3.38934 2.4751 4.48037C2.4751 5.57141 3.51399 6.45586 4.79554 6.45586Z" stroke="black" stroke-width="2" stroke-linecap="round" stroke-linejoin="round"/>
</svg>
