<svg width="29" height="25" viewBox="0 0 29 25" fill="none" xmlns="http://www.w3.org/2000/svg">
<g clip-path="url(#clip0)">
<path d="M27.2376 3.58826C26.1265 4.27698 24.8964 4.80374 23.5945 5.14826C22.8957 4.44219 21.9671 3.94175 20.9341 3.71461C19.9012 3.48748 18.8138 3.54461 17.819 3.87829C16.8242 4.21196 15.97 4.80608 15.372 5.58028C14.7739 6.35448 14.4609 7.27142 14.4751 8.20708V9.22669C12.4362 9.27315 10.4158 8.87575 8.59399 8.06989C6.77213 7.26402 5.20534 6.07471 4.03315 4.60786C4.03315 4.60786 -0.607734 13.7843 9.83425 17.8628C7.44481 19.2881 4.59836 20.0029 1.71271 19.902C12.1547 25 24.9171 19.902 24.9171 8.17649C24.9161 7.89248 24.885 7.60918 24.8243 7.33022C26.0084 6.30397 26.8441 5.00828 27.2376 3.58826V3.58826Z" stroke="black" stroke-width="2" stroke-linecap="round" stroke-linejoin="round"/>
</g>
<defs>
<clipPath id="clip0">
<rect width="27.8453" height="24.4706" fill="white" transform="translate(0.55249 0.529419)"/>
</clipPath>
</defs>
</svg>
